<svg width="141" height="32" viewBox="0 0 141 32" fill="none" xmlns="http://www.w3.org/2000/svg">
<path d="M23.4384 31.232H10.0624C9.5456 31.232 9.0896 30.866 8.968 30.3475L8.0256 26.0165C5.9888 25.803 4.0736 24.9185 2.6144 23.424C0.912 21.716 0 19.4895 0 17.08C0 14.6705 0.9424 12.4135 2.6144 10.736C4.2864 9.0585 6.536 8.113 8.9376 8.113C11.3392 8.113 13.5888 9.0585 15.2608 10.736C16.9024 12.383 17.8144 14.518 17.8752 16.8055C17.9056 16.897 17.9056 16.9885 17.9056 17.08C17.9056 20.801 20.9152 23.8205 24.624 23.8205C28.3328 23.8205 31.3424 20.801 31.3424 17.08C31.3424 13.359 28.3328 10.3395 24.6544 10.3395C24.0464 10.3395 23.5296 9.8515 23.5296 9.211V8.967C23.5296 5.246 20.52 2.2265 16.8112 2.2265C14.1664 2.2265 11.7344 3.8125 10.6704 6.2525C10.4272 6.832 9.7584 7.076 9.2112 6.832C8.6336 6.588 8.3904 5.917 8.6336 5.368C10.0624 2.1045 13.2544 0 16.8112 0C19.2128 0 21.4624 0.945501 23.1344 2.623C24.624 4.1175 25.536 6.0695 25.7184 8.1435C27.6944 8.3875 29.5488 9.272 30.9776 10.7055C32.68 12.4135 33.592 14.64 33.592 17.0495C33.592 19.459 32.6496 21.716 30.9776 23.3935C29.2752 25.1015 27.056 26.0165 24.6544 26.0165C22.2528 26.0165 20.0032 25.071 18.3312 23.3935C16.6896 21.7465 15.7776 19.6115 15.7168 17.324C15.6864 17.2325 15.6864 17.141 15.6864 17.0495C15.6864 13.3285 12.6768 10.309 8.968 10.309C5.2592 10.309 2.2496 13.3285 2.2496 17.0495C2.2496 20.7705 5.2592 23.79 8.968 23.79C9.4848 23.79 9.9408 24.156 10.0624 24.6745L10.9744 28.9445H22.6176L22.8 28.243C22.9824 27.6635 23.5904 27.2975 24.168 27.4805C24.7456 27.6635 25.1104 28.2735 24.928 28.853L24.5024 30.3475C24.3808 30.8965 23.9248 31.232 23.4384 31.232Z" fill="#0AFF9A"/>
<path d="M53.1392 12.2915C53.7776 12.627 54.264 13.115 54.6288 13.786C54.9936 14.4265 55.176 15.2195 55.176 16.165V22.1735H53.0784V16.4395C53.0784 15.5245 52.8656 14.823 52.4096 14.335C51.9536 13.847 51.3456 13.603 50.5552 13.603C49.7648 13.603 49.1568 13.847 48.6704 14.335C48.2144 14.823 47.9712 15.5245 47.9712 16.4395V22.143H45.904V16.4395C45.904 15.5245 45.6912 14.823 45.2352 14.335C44.7792 13.847 44.1712 13.603 43.3808 13.603C42.5904 13.603 41.9824 13.847 41.496 14.335C41.04 14.823 40.7968 15.5245 40.7968 16.4395V22.143H38.6992V11.956H40.7968V13.115C41.1312 12.688 41.5872 12.383 42.104 12.139C42.6208 11.895 43.1984 11.773 43.8064 11.773C44.6272 11.773 45.3568 11.956 45.9952 12.2915C46.6336 12.627 47.12 13.1455 47.4848 13.786C47.7888 13.176 48.2752 12.688 48.9136 12.322C49.552 11.956 50.2816 11.773 51.0112 11.773C51.8016 11.773 52.5312 11.956 53.1392 12.2915Z" fill="white"/>
<path d="M67.0319 11.956L60.7999 26.962H58.6111L60.6783 21.9905L56.6655 11.956H59.0063L61.8639 19.7335L64.8431 11.956H67.0319Z" fill="white"/>
<path d="M104.91 14.274C105.336 13.481 105.914 12.871 106.643 12.444C107.373 12.017 108.194 11.773 109.075 11.773C109.866 11.773 110.565 11.9255 111.173 12.2305C111.781 12.5355 112.237 12.932 112.602 13.42V11.9255H114.73V22.143H112.602V20.618C112.237 21.106 111.75 21.5025 111.142 21.8075C110.534 22.143 109.835 22.2955 109.045 22.2955C108.163 22.2955 107.373 22.082 106.643 21.6245C105.914 21.167 105.336 20.557 104.91 19.7335C104.485 18.91 104.272 17.995 104.272 16.9885C104.272 15.982 104.485 15.067 104.91 14.274ZM112.176 15.2195C111.872 14.701 111.507 14.3045 111.051 14.03C110.595 13.7555 110.078 13.6335 109.531 13.6335C108.984 13.6335 108.498 13.7555 108.011 14.03C107.555 14.3045 107.16 14.6705 106.886 15.189C106.582 15.7075 106.461 16.3175 106.461 17.019C106.461 17.7205 106.613 18.3305 106.886 18.8795C107.19 19.398 107.555 19.825 108.042 20.0995C108.528 20.374 109.014 20.5265 109.562 20.5265C110.109 20.5265 110.595 20.4045 111.082 20.13C111.538 19.8555 111.933 19.459 112.206 18.9405C112.51 18.422 112.632 17.812 112.632 17.1105C112.632 16.409 112.45 15.738 112.176 15.2195Z" fill="white"/>
<path d="M121.053 12.261C121.661 11.9255 122.36 11.773 123.15 11.773C124.032 11.773 124.853 11.9865 125.582 12.444C126.312 12.871 126.89 13.5115 127.315 14.274C127.741 15.067 127.954 15.982 127.954 16.9885C127.954 18.0255 127.741 18.9405 127.315 19.7335C126.89 20.557 126.312 21.167 125.582 21.6245C124.853 22.082 124.032 22.2955 123.15 22.2955C122.36 22.2955 121.691 22.143 121.083 21.838C120.475 21.533 119.989 21.1365 119.594 20.6485V26.9925H117.496V11.956H119.594V13.4505C119.958 12.993 120.445 12.5965 121.053 12.261ZM125.339 15.189C125.035 14.6705 124.67 14.274 124.184 14.03C123.698 13.7555 123.211 13.6335 122.664 13.6335C122.147 13.6335 121.63 13.7555 121.144 14.03C120.658 14.3045 120.293 14.701 119.989 15.2195C119.685 15.738 119.563 16.348 119.563 17.0495C119.563 17.751 119.715 18.361 119.989 18.8795C120.293 19.398 120.658 19.7945 121.144 20.069C121.63 20.3435 122.117 20.4655 122.664 20.4655C123.211 20.4655 123.728 20.313 124.184 20.0385C124.67 19.764 125.035 19.3675 125.339 18.8185C125.643 18.3 125.765 17.6595 125.765 16.958C125.795 16.3175 125.643 15.7075 125.339 15.189Z" fill="white"/>
<path d="M133.578 12.261C134.186 11.9255 134.885 11.773 135.675 11.773C136.557 11.773 137.378 11.9865 138.107 12.444C138.837 12.871 139.414 13.5115 139.84 14.274C140.266 15.067 140.478 15.982 140.478 16.9885C140.478 18.0255 140.266 18.9405 139.84 19.7335C139.414 20.557 138.837 21.167 138.107 21.6245C137.378 22.082 136.557 22.2955 135.675 22.2955C134.885 22.2955 134.216 22.143 133.608 21.838C133 21.533 132.514 21.1365 132.118 20.6485V26.9925H130.021V11.956H132.118V13.4505C132.483 12.993 132.97 12.5965 133.578 12.261ZM137.864 15.189C137.56 14.6705 137.195 14.274 136.709 14.03C136.222 13.7555 135.736 13.6335 135.189 13.6335C134.672 13.6335 134.155 13.7555 133.669 14.03C133.182 14.3045 132.818 14.701 132.514 15.2195C132.21 15.738 132.088 16.348 132.088 17.0495C132.088 17.751 132.24 18.361 132.514 18.8795C132.818 19.398 133.182 19.7945 133.669 20.069C134.155 20.3435 134.642 20.4655 135.189 20.4655C135.736 20.4655 136.253 20.313 136.709 20.0385C137.195 19.764 137.56 19.3675 137.864 18.8185C138.168 18.3 138.29 17.6595 138.29 16.958C138.32 16.3175 138.168 15.7075 137.864 15.189Z" fill="white"/>
<path d="M73.1422 13.664H71.2574V22.143H69.1294V13.664H67.9438V11.956H69.1294V11.224C69.1294 10.065 69.4334 9.18052 70.0718 8.66202C70.6798 8.11302 71.683 7.86902 72.9902 7.86902V9.63802C72.3518 9.63802 71.8959 9.76002 71.6527 10.004C71.4095 10.248 71.2574 10.675 71.2574 11.2545V11.9865H73.1422V13.664Z" fill="#0AFF9A"/>
<path d="M78.3408 12.2305C78.8576 11.9255 79.4656 11.8035 80.1648 11.8035V13.9995H79.6176C78.7968 13.9995 78.1584 14.213 77.7328 14.64C77.3072 15.067 77.0944 15.799 77.0944 16.836V22.204H74.9968V11.956H77.0944V13.4505C77.3984 12.9015 77.824 12.505 78.3408 12.2305Z" fill="#0AFF9A"/>
<path d="M91.3215 17.8425H83.5391C83.5999 18.666 83.9039 19.3065 84.4511 19.7945C84.9983 20.2825 85.6671 20.5265 86.4575 20.5265C87.5823 20.5265 88.4031 20.0385 88.8591 19.093H91.1391C90.8351 20.0385 90.2879 20.801 89.4671 21.411C88.6463 22.021 87.6735 22.2955 86.4575 22.2955C85.4847 22.2955 84.6031 22.082 83.8431 21.6245C83.0831 21.1975 82.4751 20.557 82.0191 19.764C81.5935 18.971 81.3503 18.056 81.3503 16.9885C81.3503 15.9515 81.5631 15.006 81.9887 14.213C82.4143 13.42 83.0223 12.81 83.7823 12.383C84.5423 11.956 85.4239 11.7425 86.4271 11.7425C87.3999 11.7425 88.2511 11.956 88.9807 12.383C89.7407 12.81 90.3183 13.3895 90.7439 14.152C91.1695 14.9145 91.3823 15.799 91.3823 16.775C91.4127 17.1715 91.3823 17.5375 91.3215 17.8425ZM89.2239 16.1345C89.2239 15.3415 88.9199 14.7315 88.4031 14.274C87.8559 13.8165 87.1871 13.5725 86.3967 13.5725C85.6671 13.5725 85.0591 13.8165 84.5423 14.274C84.0255 14.7315 83.7215 15.372 83.6303 16.165H89.2239V16.1345Z" fill="#0AFF9A"/>
<path d="M102.722 17.8425H94.9393C95.0001 18.666 95.3041 19.3065 95.8513 19.7945C96.3985 20.2825 97.0673 20.5265 97.8577 20.5265C98.9825 20.5265 99.8033 20.0385 100.259 19.093H102.539C102.235 20.0385 101.688 20.801 100.867 21.411C100.046 22.021 99.0737 22.2955 97.8577 22.2955C96.8849 22.2955 96.0033 22.082 95.2433 21.6245C94.4833 21.1975 93.8753 20.557 93.4193 19.764C92.9937 18.971 92.7505 18.056 92.7505 16.9885C92.7505 15.9515 92.9633 15.006 93.3889 14.213C93.8145 13.42 94.4225 12.81 95.1825 12.383C95.9425 11.956 96.8241 11.7425 97.8273 11.7425C98.8001 11.7425 99.6513 11.956 100.381 12.383C101.141 12.81 101.718 13.3895 102.144 14.152C102.57 14.9145 102.782 15.799 102.782 16.775C102.813 17.1715 102.782 17.5375 102.722 17.8425ZM100.594 16.1345C100.594 15.3415 100.29 14.7315 99.7729 14.274C99.2257 13.8165 98.5569 13.5725 97.7665 13.5725C97.0369 13.5725 96.4289 13.8165 95.9121 14.274C95.3953 14.7315 95.0913 15.372 95.0001 16.165H100.594V16.1345Z" fill="#0AFF9A"/>
</svg>
