<?xml version="1.0" standalone="no"?>
<!DOCTYPE svg PUBLIC "-//W3C//DTD SVG 20010904//EN"
 "http://www.w3.org/TR/2001/REC-SVG-20010904/DTD/svg10.dtd">
<svg version="1.0" xmlns="http://www.w3.org/2000/svg"
 width="555.000000pt" height="555.000000pt" viewBox="0 0 555.000000 555.000000"
 preserveAspectRatio="xMidYMid meet">
<metadata>
Created by potrace 1.14, written by Peter Selinger 2001-2017
</metadata>
<g transform="translate(0.000000,555.000000) scale(0.100000,-0.100000)"
fill="#000000" stroke="none">
<path d="M2635 5334 c-256 -36 -412 -87 -597 -193 -254 -147 -448 -354 -589
-631 -26 -52 -33 -77 -34 -127 0 -54 4 -66 31 -100 53 -67 125 -91 202 -68 60
18 90 50 137 145 54 109 116 194 214 291 132 131 261 210 438 268 574 188
1197 -124 1392 -697 16 -48 32 -103 35 -122 3 -19 8 -48 11 -65 3 -16 8 -79
10 -138 9 -189 56 -245 219 -253 44 -2 97 -7 116 -10 19 -3 49 -7 67 -10 60
-8 198 -56 284 -100 296 -148 507 -423 584 -759 20 -89 26 -291 11 -395 -12
-80 -51 -210 -88 -287 -34 -74 -85 -160 -105 -181 -7 -7 -13 -17 -13 -22 0
-19 -198 -208 -265 -252 -195 -129 -394 -190 -625 -190 -318 -1 -594 119 -814
353 -98 103 -169 218 -237 384 -32 77 -52 204 -64 405 -14 217 -47 370 -118
535 -116 271 -332 522 -582 675 -170 104 -394 184 -582 208 -77 9 -312 9 -393
-1 -220 -27 -490 -133 -667 -262 -52 -38 -174 -147 -216 -193 -23 -25 -47 -50
-53 -56 -21 -22 -100 -133 -133 -186 -74 -121 -155 -329 -180 -460 -6 -30 -13
-68 -17 -85 -10 -51 -13 -326 -3 -395 15 -109 18 -122 38 -200 80 -302 256
-569 510 -772 192 -154 420 -256 661 -297 l105 -18 52 -234 c63 -278 59 -261
72 -324 41 -207 61 -245 144 -280 32 -13 172 -15 1169 -15 710 0 1146 4 1167
10 19 5 51 27 70 48 31 33 42 61 80 193 25 85 45 172 45 194 1 90 -88 175
-184 177 -68 1 -163 -72 -174 -134 -1 -7 -8 -35 -15 -63 l-13 -50 -958 0
c-527 0 -961 3 -965 6 -3 4 -8 19 -11 35 -3 16 -10 49 -15 74 -6 25 -13 54
-15 65 -2 11 -15 74 -29 140 -15 66 -39 182 -55 258 -31 146 -44 179 -82 213
-42 39 -81 51 -183 58 -121 7 -174 16 -285 51 -210 66 -398 200 -550 391 -49
61 -127 209 -158 299 -172 504 39 1055 504 1320 181 103 358 146 579 141 457
-12 844 -290 1010 -726 44 -115 56 -184 70 -410 10 -163 23 -247 56 -365 71
-248 189 -447 378 -635 285 -284 648 -435 1046 -434 95 0 235 13 275 24 18 5
51 12 73 15 118 18 373 135 514 236 83 59 303 269 303 289 0 5 6 15 13 22 65
69 172 272 222 422 79 236 93 510 41 784 -12 61 -67 222 -101 295 -97 207
-259 409 -440 546 -22 17 -44 34 -50 38 -139 108 -437 227 -622 249 -39 5 -53
11 -54 23 -3 61 -33 200 -65 299 -138 425 -457 762 -874 923 -158 61 -304 89
-490 94 -85 2 -168 1 -185 -1z"/>
</g>
</svg>
